# xmcd CD database file
#
# Track frame offsets:
#	150
#	23496
#	40619
#	62078
#	80322
#	101603
#	128037
#	148082
#	170856
#
# Disc length: 2525 seconds
#
# Revision: 0
# Processed by: cddbd v1.5.2PL0 Copyright (c) Steve Scherf et al.
# Submitted via: CDex 1.70beta2
#
DISCID=7009db09
DTITLE=Jimmy Knepper - Swinging Introduction to Jimmy Knepper
DYEAR=1900
DGENRE=Jazz
TTITLE0=Love Letters
TTITLE1=Ogling Ogre
TTITLE2=You Stepped Out of a Dream
TTITLE3=How High the Moon
TTITLE4=Gee Baby, Ain't I Good to You
TTITLE5=Idol of the Flies
TTITLE6=Close as Pages in a Book
TTITLE7=Avid Admirer
TTITLE8=Irresistible You
EXTD=
EXTT0=
EXTT1=
EXTT2=
EXTT3=
EXTT4=
EXTT5=
EXTT6=
EXTT7=
EXTT8=
PLAYORDER=
